<?xml version="1.0" encoding="UTF-8" standalone="no"?>
<!-- Created with Inkscape (http://www.inkscape.org/) -->

<svg
   version="1.1"
   id="svg2"
   xml:space="preserve"
   width="700"
   height="650"
   viewBox="0 0 699.99998 650"
   sodipodi:docname="logo_atricon.svg"
   inkscape:version="1.2 (dc2aedaf03, 2022-05-15)"
   xmlns:inkscape="http://www.inkscape.org/namespaces/inkscape"
   xmlns:sodipodi="http://sodipodi.sourceforge.net/DTD/sodipodi-0.dtd"
   xmlns="http://www.w3.org/2000/svg"
   xmlns:svg="http://www.w3.org/2000/svg"
   xmlns:rdf="http://www.w3.org/1999/02/22-rdf-syntax-ns#"
   xmlns:cc="http://creativecommons.org/ns#"
   xmlns:dc="http://purl.org/dc/elements/1.1/"><metadata
     id="metadata8"><rdf:RDF><cc:Work
         rdf:about=""><dc:format>image/svg+xml</dc:format><dc:type
           rdf:resource="http://purl.org/dc/dcmitype/StillImage" /></cc:Work></rdf:RDF></metadata><defs
     id="defs6"><linearGradient
       x1="0"
       y1="0"
       x2="1"
       y2="0"
       gradientUnits="userSpaceOnUse"
       gradientTransform="matrix(269.12848,20.758255,20.758255,-269.12848,289.82443,472.82358)"
       spreadMethod="pad"
       id="linearGradient34"><stop
         style="stop-opacity:1;stop-color:#f7db05"
         offset="0"
         id="stop24" /><stop
         style="stop-opacity:1;stop-color:#f7db05"
         offset="0.59830453"
         id="stop26" /><stop
         style="stop-opacity:1;stop-color:#c99419"
         offset="0.899994"
         id="stop28" /><stop
         style="stop-opacity:1;stop-color:#c99419"
         offset="0.90708871"
         id="stop30" /><stop
         style="stop-opacity:1;stop-color:#f7db05"
         offset="1"
         id="stop32" /></linearGradient><linearGradient
       x1="0"
       y1="0"
       x2="1"
       y2="0"
       gradientUnits="userSpaceOnUse"
       gradientTransform="matrix(162.64453,12.545,12.545,-162.64453,429.5123,357.28641)"
       spreadMethod="pad"
       id="linearGradient60"><stop
         style="stop-opacity:1;stop-color:#f7db05"
         offset="0"
         id="stop50" /><stop
         style="stop-opacity:1;stop-color:#f7db05"
         offset="0.59830453"
         id="stop52" /><stop
         style="stop-opacity:1;stop-color:#c99419"
         offset="0.899994"
         id="stop54" /><stop
         style="stop-opacity:1;stop-color:#c99419"
         offset="0.90708871"
         id="stop56" /><stop
         style="stop-opacity:1;stop-color:#f7db05"
         offset="1"
         id="stop58" /></linearGradient><linearGradient
       x1="0"
       y1="0"
       x2="1"
       y2="0"
       gradientUnits="userSpaceOnUse"
       gradientTransform="matrix(132.72252,-18.315332,-18.315332,-132.72252,269.68365,370.45706)"
       spreadMethod="pad"
       id="linearGradient86"><stop
         style="stop-opacity:1;stop-color:#1f3f6a"
         offset="0"
         id="stop76" /><stop
         style="stop-opacity:1;stop-color:#50b1e7"
         offset="0.3317382"
         id="stop78" /><stop
         style="stop-opacity:1;stop-color:#50b1e7"
         offset="0.571429"
         id="stop80" /><stop
         style="stop-opacity:1;stop-color:#50b1e7"
         offset="0.7260757"
         id="stop82" /><stop
         style="stop-opacity:1;stop-color:#3d81cb"
         offset="1"
         id="stop84" /></linearGradient><linearGradient
       x1="0"
       y1="0"
       x2="1"
       y2="0"
       gradientUnits="userSpaceOnUse"
       gradientTransform="matrix(253.82732,0,0,-253.82732,304.72391,339.7399)"
       spreadMethod="pad"
       id="linearGradient108"><stop
         style="stop-opacity:1;stop-color:#5fc8b3"
         offset="0"
         id="stop102" /><stop
         style="stop-opacity:1;stop-color:#5fc8b3"
         offset="0.43956"
         id="stop104" /><stop
         style="stop-opacity:1;stop-color:#5fc8b3"
         offset="1"
         id="stop106" /></linearGradient><linearGradient
       x1="0"
       y1="0"
       x2="1"
       y2="0"
       gradientUnits="userSpaceOnUse"
       gradientTransform="matrix(0,141.1124,141.1124,0,396.99048,284.09671)"
       spreadMethod="pad"
       id="linearGradient130"><stop
         style="stop-opacity:1;stop-color:#1f3f6c"
         offset="0"
         id="stop124" /><stop
         style="stop-opacity:1;stop-color:#1f3f6c"
         offset="0.4280943"
         id="stop126" /><stop
         style="stop-opacity:1;stop-color:#3d81cb"
         offset="1"
         id="stop128" /></linearGradient><linearGradient
       x1="0"
       y1="0"
       x2="1"
       y2="0"
       gradientUnits="userSpaceOnUse"
       gradientTransform="matrix(0,237.08554,237.08554,0,457.0141,200.20612)"
       spreadMethod="pad"
       id="linearGradient156"><stop
         style="stop-opacity:1;stop-color:#1f3f6c"
         offset="0"
         id="stop146" /><stop
         style="stop-opacity:1;stop-color:#1f3f6c"
         offset="0.38810729"
         id="stop148" /><stop
         style="stop-opacity:1;stop-color:#50b1e7"
         offset="0.906593"
         id="stop150" /><stop
         style="stop-opacity:1;stop-color:#50b1e7"
         offset="0.94029823"
         id="stop152" /><stop
         style="stop-opacity:1;stop-color:#3d81cb"
         offset="1"
         id="stop154" /></linearGradient><clipPath
       clipPathUnits="userSpaceOnUse"
       id="clipPath166"><path
         d="M 0,595.276 H 841.89 V 0 H 0 Z"
         id="path164"
         inkscape:connector-curvature="0" /></clipPath></defs><sodipodi:namedview
     pagecolor="#ffffff"
     bordercolor="#666666"
     borderopacity="1"
     objecttolerance="10"
     gridtolerance="10"
     guidetolerance="10"
     inkscape:pageopacity="0"
     inkscape:pageshadow="2"
     inkscape:window-width="1920"
     inkscape:window-height="1017"
     id="namedview4"
     showgrid="false"
     inkscape:zoom="0.29734106"
     inkscape:cx="430.48209"
     inkscape:cy="400.21382"
     inkscape:window-x="1912"
     inkscape:window-y="-8"
     inkscape:window-maximized="1"
     inkscape:current-layer="g10"
     inkscape:showpageshadow="2"
     inkscape:pagecheckerboard="0"
     inkscape:deskcolor="#d1d1d1" /><g
     id="g10"
     inkscape:groupmode="layer"
     inkscape:label="Logo_Oficial_Atricon2022_curvas"
     transform="matrix(1.3333333,0,0,-1.3333333,0,793.70133)"><g
       id="g390"
       transform="translate(-168.61339,52.042006)"><g
         id="g12"><g
           id="g14"><g
             id="g20"><g
               id="g22"><path
                 d="m 333.743,489.31 c -17.317,-13.119 -31.208,-29.066 -41.589,-46.696 v 0 c 2.512,2.146 5.07,4.262 7.746,6.289 v 0 c 35.707,27.045 79.035,36.947 120.148,31.083 v 0 c 48.252,14.328 101.101,5.244 141.88,-24.982 v 0 c -0.747,1.043 -1.46,2.104 -2.246,3.13 v 0 c -31.718,41.869 -79.917,63.903 -128.683,63.905 v 0 c -33.927,0.002 -68.127,-10.661 -97.256,-32.729"
                 style="fill:url(#linearGradient34);stroke:none"
                 id="path36"
                 inkscape:connector-curvature="0" /></g></g></g></g><g
         id="g38"><g
           id="g40"><g
             id="g46"><g
               id="g48"><path
                 d="m 420.048,479.986 c 40.606,-5.788 79.053,-26.972 105.788,-62.256 v 0 c 40.665,-53.684 42.58,-124.586 10.417,-179.231 v 0 c 63.211,54.251 74.797,148.398 25.675,216.505 v 0 c -28.107,20.834 -61.958,31.623 -96.077,31.625 v 0 c -15.381,10e-4 -30.81,-2.191 -45.803,-6.643"
                 style="fill:url(#linearGradient60);stroke:none"
                 id="path62"
                 inkscape:connector-curvature="0" /></g></g></g></g><g
         id="g64"><g
           id="g66"><g
             id="g72"><g
               id="g74"><path
                 d="m 299.9,448.903 c -2.676,-2.027 -5.234,-4.143 -7.746,-6.289 v 0 C 259.996,387.951 261.907,317.058 302.566,263.38 v 0 c 9.523,-12.57 20.546,-23.305 32.607,-32.241 v 0 c -51.067,70.814 -36.551,169.795 33.426,222.799 v 0 c 15.919,12.062 33.351,20.691 51.449,26.048 v 0 c -7.583,1.082 -15.245,1.627 -22.917,1.627 v 0 c -33.923,10e-4 -68.11,-10.653 -97.231,-32.71"
                 style="fill:url(#linearGradient86);stroke:none"
                 id="path88"
                 inkscape:connector-curvature="0" /></g></g></g></g><g
         id="g90"><g
           id="g92"><g
             id="g98"><g
               id="g100"><path
                 d="M 368.599,453.938 C 298.622,400.934 284.106,301.953 335.173,231.139 v 0 c 56.059,-41.541 134.903,-43.203 193.336,1.074 v 0 c 2.668,2.025 5.237,4.132 7.744,6.286 v 0 c 32.163,54.645 30.248,125.547 -10.417,179.231 v 0 c -26.735,35.284 -65.182,56.468 -105.788,62.256 v 0 C 401.95,474.629 384.518,466 368.599,453.938 M 346.37,296.556 c -35.462,46.804 -26.256,113.497 20.547,148.955 v 0 c 46.817,35.464 113.5,26.257 148.96,-20.554 v 0 C 551.34,378.143 542.136,311.46 495.328,276.009 v 0 C 476.125,261.463 453.567,254.432 431.2,254.43 v 0 c -32.151,-0.002 -63.917,14.52 -84.83,42.126"
                 style="fill:url(#linearGradient108);stroke:none"
                 id="path110"
                 inkscape:connector-curvature="0" /></g></g></g></g><g
         id="g112"><g
           id="g114"><g
             id="g120"><g
               id="g122"><path
                 d="m 327.975,350.776 c 3.088,-22.091 13.117,-43.393 30.101,-60.376 v 0 c 2.233,-2.225 4.557,-4.308 6.923,-6.303 v 0 l 101.007,139.591 -81.26,1.522 z"
                 style="fill:url(#linearGradient130);stroke:none"
                 id="path132"
                 inkscape:connector-curvature="0" /></g></g></g></g><g
         id="g134"><g
           id="g136"><g
             id="g142"><g
               id="g144"><path
                 d="m 468.468,437.291 -64.031,-0.795 -0.459,0.037 c -6.473,-0.194 -12.854,-3.158 -17.119,-8.614 v 0 c -0.09,-0.083 -0.143,-0.153 -0.197,-0.23 v 0 l -2.746,-3.655 -3.676,-4.892 0.011,0.006 c 3.542,4.712 10.234,5.666 14.948,2.133 v 0 c 0.005,-0.01 0.005,0 0.005,0 v 0 -0.01 c 1.997,-1.49 3.298,-3.58 3.937,-5.809 v 0 l 15.787,-57.14 33.863,-137.937 c 0,0 3.381,-20.297 28.802,-20.178 v 0 c 14.054,0.07 56.195,0 56.195,0 v 0 l -57.893,231.4 c -0.425,1.611 -1.368,3.092 -2.797,4.158 v 0 c -1.389,1.05 -2.991,1.526 -4.556,1.526 v 0 c -0.024,0 -0.049,0 -0.074,0"
                 style="fill:url(#linearGradient156);stroke:none"
                 id="path158"
                 inkscape:connector-curvature="0" /></g></g></g></g><g
         id="g160"><g
           id="g162"
           clip-path="url(#clipPath166)"><g
             id="g168"
             transform="translate(659.0624,156.702)"><path
               d="M 0,0 V -47.554 L -27.688,0.045 -27.767,0 h -19.315 l -0.085,-78.766 h 10.09 c 6.74,0 9.29,5.491 9.29,11.621 l -0.051,14.816 v 21.416 l 27.619,-47.54 H 18.246 V 0 Z m -300.439,-35.55 h -8.337 v 19.092 h 6.478 c 9.651,0 11.849,-3.508 11.849,-9.435 0,-6.25 -3.846,-9.657 -9.99,-9.657 m 17.78,-10.754 v 0.219 c 7.79,3.949 11.741,13.059 11.741,21.394 0,11.414 -5.593,19.428 -14.48,22.829 -3.408,1.321 -7.249,1.862 -15.257,1.862 h -27.323 v -78.453 h 19.202 v 26.443 h 8.999 l 13.935,-26.443 h 21.4 l -15.256,27.432 c -1.861,3.292 -2.961,4.717 -2.961,4.717 m 29.587,-32.191 h 9.828 c 6.543,0 9.023,5.336 9.023,11.302 v 67.186 h -18.851 z m -151.507,62.734 h 24.184 v -62.884 h 9.525 c 6.352,0 8.768,5.176 8.768,10.964 v 51.92 h 14.636 c 5.044,0 9.546,2.095 9.546,7.626 v 8.294 h -66.659 z m 303.319,-46.457 c -11.742,0 -21.184,10.101 -21.184,23.488 0,12.837 9.442,22.497 21.184,22.497 11.739,0 21.171,-9.66 21.171,-22.497 0,-13.387 -9.432,-23.488 -21.171,-23.488 m 0,63.542 c -23.708,0 -41.04,-17.557 -41.04,-40.054 0,-23.042 17.332,-41.043 41.04,-41.043 23.69,0 41.03,18.001 41.03,41.043 0,22.497 -17.34,40.054 -41.03,40.054 m -343.418,-46.803 3.179,11.586 0.045,-0.026 0.835,3.133 3.611,12.904 h 0.062 l 7.267,-27.597 z M -447.154,0 l -0.08,-0.235 -0.243,0.079 -26.667,-78.463 10.114,0.153 c 7.222,-0.249 10.33,2.798 12.414,8.388 l 2.159,7.696 0.109,0.388 h 0.127 l 0.264,0.955 h 23.769 l 0.287,-0.955 h 0.024 l 4.827,-16.459 h 19.751 L -426.965,0 Z m 268.308,-62.218 c -14.483,0 -22.168,11.963 -22.168,23.594 0,11.303 7.131,22.391 22.168,22.391 10.861,0 19.642,-8.017 19.642,-8.017 l 8.886,14.487 c 0,0 -9.987,11.087 -29.416,11.087 -23.587,0 -41.141,-17.557 -41.141,-40.385 0,-23.261 16.564,-40.712 41.141,-40.712 20.53,0 31.608,13.162 31.608,13.162 l -9.879,14.053 c 0,0 -8.985,-9.66 -20.841,-9.66"
               style="fill:#59646a;fill-opacity:1;fill-rule:nonzero;stroke:none"
               id="path170"
               inkscape:connector-curvature="0" /></g></g></g></g></g></svg>
